<svg width="128" height="20" viewBox="0 0 128 20" fill="none" xmlns="http://www.w3.org/2000/svg">
<mask id="path-1-outside-1_0_1" maskUnits="userSpaceOnUse" x="108" y="0" width="20" height="20" fill="black">
<rect fill="white" x="108" width="20" height="20"/>
<path d="M127 10C127 12.3869 126.052 14.6761 124.364 16.364C122.676 18.0518 120.387 19 118 19C115.613 19 113.324 18.0518 111.636 16.364C109.948 14.6761 109 12.3869 109 10C109 7.61305 109.948 5.32387 111.636 3.63604C113.324 1.94821 115.613 1 118 1C120.387 1 122.676 1.94821 124.364 3.63604C126.052 5.32387 127 7.61305 127 10Z"/>
</mask>
<path d="M127 10C127 12.3869 126.052 14.6761 124.364 16.364C122.676 18.0518 120.387 19 118 19C115.613 19 113.324 18.0518 111.636 16.364C109.948 14.6761 109 12.3869 109 10C109 7.61305 109.948 5.32387 111.636 3.63604C113.324 1.94821 115.613 1 118 1C120.387 1 122.676 1.94821 124.364 3.63604C126.052 5.32387 127 7.61305 127 10Z" fill="url(#paint0_linear_0_1)"/>
<path d="M118 19V20V19ZM109 10H108H109ZM118 1V0V1ZM126 10C126 12.1217 125.157 14.1566 123.657 15.6569L125.071 17.0711C126.946 15.1957 128 12.6522 128 10H126ZM123.657 15.6569C122.157 17.1571 120.122 18 118 18V20C120.652 20 123.196 18.9464 125.071 17.0711L123.657 15.6569ZM118 18C115.878 18 113.843 17.1571 112.343 15.6569L110.929 17.0711C112.804 18.9464 115.348 20 118 20V18ZM112.343 15.6569C110.843 14.1566 110 12.1217 110 10H108C108 12.6522 109.054 15.1957 110.929 17.0711L112.343 15.6569ZM110 10C110 7.87827 110.843 5.84344 112.343 4.34315L110.929 2.92893C109.054 4.8043 108 7.34784 108 10H110ZM112.343 4.34315C113.843 2.84285 115.878 2 118 2V0C115.348 0 112.804 1.05357 110.929 2.92893L112.343 4.34315ZM118 2C120.122 2 122.157 2.84285 123.657 4.34315L125.071 2.92893C123.196 1.05357 120.652 0 118 0V2ZM123.657 4.34315C125.157 5.84344 126 7.87827 126 10H128C128 7.34784 126.946 4.8043 125.071 2.92893L123.657 4.34315Z" fill="white" mask="url(#path-1-outside-1_0_1)"/>
<path d="M112.375 10.009C112.375 12.2759 113.507 16.75 118 16.75C122.492 16.75 123.625 12.2759 123.625 10.009C123.625 9.83013 121.814 8.875 118 8.875C114.186 8.875 112.375 9.83013 112.375 10.009Z" fill="url(#paint1_linear_0_1)"/>
<path d="M114.109 15.0625C115.013 16.1819 116.254 16.75 118.011 16.75C119.77 16.75 120.998 16.1819 121.903 15.0625C121.283 14.401 120.104 13.375 118.011 13.375C115.919 13.375 114.73 14.401 114.109 15.0625Z" fill="url(#paint2_linear_0_1)"/>
<path d="M115.99 5.662C116.285 5.8735 116.554 6.17388 116.451 6.5485C116.371 6.83425 116.233 6.96362 115.976 6.96588C115.099 6.97825 114.055 7.25275 113.157 7.65438C113.084 7.687 112.935 7.75338 112.783 7.75C112.644 7.74662 112.501 7.68475 112.415 7.48338C112.34 7.30675 112.333 7.04688 112.726 6.81063C113.339 6.43937 114.14 6.27062 114.874 6.13112C114.413 5.79075 113.917 5.50108 113.394 5.26712C112.914 5.04887 112.967 4.753 113.031 4.59213C113.174 4.2355 113.716 4.37163 114.244 4.62138C114.859 4.90881 115.444 5.25744 115.99 5.662ZM120.014 5.662C120.558 5.25727 121.143 4.90862 121.757 4.62138C122.286 4.37163 122.826 4.2355 122.97 4.59213C123.034 4.753 123.087 5.04887 122.607 5.26712C122.085 5.50084 121.589 5.79054 121.13 6.13112C121.861 6.2695 122.663 6.43937 123.275 6.81063C123.668 7.04688 123.66 7.30562 123.586 7.48338C123.499 7.68588 123.357 7.74662 123.218 7.75C123.066 7.75338 122.917 7.687 122.844 7.65438C121.948 7.25275 120.904 6.97938 120.027 6.96588C119.771 6.96362 119.632 6.83425 119.552 6.54962C119.45 6.175 119.718 5.87462 120.014 5.66312V5.662Z" fill="#2A3755"/>
<mask id="path-6-outside-2_0_1" maskUnits="userSpaceOnUse" x="90" y="0" width="20" height="20" fill="black">
<rect fill="white" x="90" width="20" height="20"/>
<path d="M109 10C109 12.3869 108.052 14.6761 106.364 16.364C104.676 18.0518 102.387 19 100 19C97.6131 19 95.3239 18.0518 93.636 16.364C91.9482 14.6761 91 12.3869 91 10C91 7.61305 91.9482 5.32387 93.636 3.63604C95.3239 1.94821 97.6131 1 100 1C102.387 1 104.676 1.94821 106.364 3.63604C108.052 5.32387 109 7.61305 109 10Z"/>
</mask>
<path d="M109 10C109 12.3869 108.052 14.6761 106.364 16.364C104.676 18.0518 102.387 19 100 19C97.6131 19 95.3239 18.0518 93.636 16.364C91.9482 14.6761 91 12.3869 91 10C91 7.61305 91.9482 5.32387 93.636 3.63604C95.3239 1.94821 97.6131 1 100 1C102.387 1 104.676 1.94821 106.364 3.63604C108.052 5.32387 109 7.61305 109 10Z" fill="url(#paint3_linear_0_1)"/>
<path d="M100 19V20V19ZM91 10H90H91ZM100 1V0V1ZM108 10C108 12.1217 107.157 14.1566 105.657 15.6569L107.071 17.0711C108.946 15.1957 110 12.6522 110 10H108ZM105.657 15.6569C104.157 17.1571 102.122 18 100 18V20C102.652 20 105.196 18.9464 107.071 17.0711L105.657 15.6569ZM100 18C97.8783 18 95.8434 17.1571 94.3431 15.6569L92.9289 17.0711C94.8043 18.9464 97.3478 20 100 20V18ZM94.3431 15.6569C92.8429 14.1566 92 12.1217 92 10H90C90 12.6522 91.0536 15.1957 92.9289 17.0711L94.3431 15.6569ZM92 10C92 7.87827 92.8429 5.84344 94.3431 4.34315L92.9289 2.92893C91.0536 4.8043 90 7.34784 90 10H92ZM94.3431 4.34315C95.8434 2.84285 97.8783 2 100 2V0C97.3478 0 94.8043 1.05357 92.9289 2.92893L94.3431 4.34315ZM100 2C102.122 2 104.157 2.84285 105.657 4.34315L107.071 2.92893C105.196 1.05357 102.652 0 100 0V2ZM105.657 4.34315C107.157 5.84344 108 7.87827 108 10H110C110 7.34784 108.946 4.8043 107.071 2.92893L105.657 4.34315Z" fill="white" mask="url(#path-6-outside-2_0_1)"/>
<path d="M97.3484 13.249C97.1706 15.3246 98.1651 16.75 100 16.75C101.834 16.75 102.829 15.3246 102.652 13.249C102.475 11.1722 101.397 10 100 10C98.6028 10 97.525 11.1722 97.3484 13.249Z" fill="url(#paint4_linear_0_1)"/>
<path d="M94.9375 7.1875C94.9375 6.256 95.5664 5.5 96.3438 5.5C97.1211 5.5 97.75 6.256 97.75 7.1875C97.75 8.12013 97.1211 8.875 96.3438 8.875C95.5664 8.875 94.9375 8.12013 94.9375 7.1875ZM102.25 7.1875C102.25 6.256 102.88 5.5 103.656 5.5C104.434 5.5 105.062 6.256 105.062 7.1875C105.062 8.12013 104.434 8.875 103.656 8.875C102.88 8.875 102.25 8.12013 102.25 7.1875Z" fill="url(#paint5_linear_0_1)"/>
<g filter="url(#filter0_i_0_1)">
<path d="M94.9375 7.1875C94.9375 6.256 95.5664 5.5 96.3438 5.5C97.1211 5.5 97.75 6.256 97.75 7.1875C97.75 8.12013 97.1211 8.875 96.3438 8.875C95.5664 8.875 94.9375 8.12013 94.9375 7.1875ZM102.25 7.1875C102.25 6.256 102.88 5.5 103.656 5.5C104.434 5.5 105.062 6.256 105.062 7.1875C105.062 8.12013 104.434 8.875 103.656 8.875C102.88 8.875 102.25 8.12013 102.25 7.1875Z" fill="black"/>
</g>
<path d="M96.0411 6.13782C96.2504 6.18507 96.3674 6.42132 96.3021 6.66545C96.238 6.9107 96.0164 7.07045 95.8071 7.0232C95.5979 6.97595 95.4809 6.7397 95.5461 6.49445C95.6102 6.25145 95.8319 6.08945 96.0411 6.13782ZM103.531 6.2087C103.763 6.26157 103.894 6.5237 103.822 6.7937C103.75 7.06707 103.504 7.2437 103.271 7.19195C103.04 7.1402 102.909 6.87695 102.981 6.60582C103.052 6.33357 103.298 6.15582 103.532 6.2087H103.531Z" fill="#4E506A"/>
<g filter="url(#filter1_d_0_1)">
<path d="M103.451 2.90805C103.51 2.90242 103.568 2.90017 103.628 2.90017C104.176 2.90017 104.742 3.12967 105.172 3.53242C105.249 3.60629 105.295 3.70733 105.3 3.81431C105.304 3.92129 105.267 4.0259 105.196 4.10617C105.162 4.14554 105.12 4.17758 105.073 4.20035C105.026 4.22312 104.975 4.23616 104.923 4.23868C104.871 4.2412 104.819 4.23316 104.77 4.21503C104.721 4.19689 104.676 4.16905 104.638 4.13317C104.329 3.8418 103.9 3.68317 103.522 3.71805C103.391 3.72786 103.264 3.76629 103.149 3.83062C103.035 3.89496 102.935 3.98364 102.859 4.09042C102.828 4.13228 102.789 4.16754 102.744 4.19412C102.7 4.2207 102.65 4.23807 102.599 4.2452C102.547 4.25233 102.495 4.24908 102.444 4.23563C102.394 4.22219 102.347 4.19883 102.306 4.16692C102.222 4.10017 102.167 4.00338 102.153 3.89697C102.139 3.79056 102.167 3.68285 102.231 3.59655C102.373 3.40051 102.555 3.23746 102.766 3.11862C102.976 2.99977 103.21 2.92794 103.451 2.90805ZM94.8284 3.53242C95.2455 3.13574 95.7963 2.9101 96.3719 2.90017C96.6438 2.89428 96.913 2.95459 97.1564 3.0759C97.3999 3.19721 97.6101 3.3759 97.7691 3.59655C97.8328 3.68281 97.8606 3.79036 97.8468 3.89668C97.8329 4.003 97.7785 4.09984 97.6949 4.16692C97.6537 4.19886 97.6066 4.22224 97.5564 4.2357C97.5061 4.24916 97.4536 4.25242 97.402 4.24529C97.3504 4.23816 97.3008 4.22079 97.256 4.19419C97.2113 4.1676 97.1723 4.13231 97.1414 4.09042C97.0646 3.98369 96.9654 3.89505 96.8507 3.83073C96.7361 3.7664 96.6087 3.72794 96.4776 3.71805C96.1007 3.68317 95.671 3.8418 95.3616 4.13317C95.3237 4.16905 95.279 4.19689 95.23 4.21503C95.1811 4.23316 95.129 4.2412 95.0769 4.23868C95.0247 4.23616 94.9737 4.22312 94.9267 4.20035C94.8797 4.17758 94.8379 4.14554 94.8036 4.10617C94.7327 4.0259 94.6957 3.92129 94.7003 3.81431C94.705 3.70733 94.7508 3.60629 94.8284 3.53242Z" fill="black"/>
</g>
<path d="M103.451 2.90805C103.51 2.90242 103.568 2.90017 103.628 2.90017C104.176 2.90017 104.742 3.12967 105.172 3.53242C105.249 3.60629 105.295 3.70733 105.3 3.81431C105.304 3.92129 105.267 4.0259 105.196 4.10617C105.162 4.14554 105.12 4.17758 105.073 4.20035C105.026 4.22312 104.975 4.23616 104.923 4.23868C104.871 4.2412 104.819 4.23316 104.77 4.21503C104.721 4.19689 104.676 4.16905 104.638 4.13317C104.329 3.8418 103.9 3.68317 103.522 3.71805C103.391 3.72786 103.264 3.76629 103.149 3.83062C103.035 3.89496 102.935 3.98364 102.859 4.09042C102.828 4.13228 102.789 4.16754 102.744 4.19412C102.7 4.2207 102.65 4.23807 102.599 4.2452C102.547 4.25233 102.495 4.24908 102.444 4.23563C102.394 4.22219 102.347 4.19883 102.306 4.16692C102.222 4.10017 102.167 4.00338 102.153 3.89697C102.139 3.79056 102.167 3.68285 102.231 3.59655C102.373 3.40051 102.555 3.23746 102.766 3.11862C102.976 2.99977 103.21 2.92794 103.451 2.90805ZM94.8284 3.53242C95.2455 3.13574 95.7963 2.9101 96.3719 2.90017C96.6438 2.89428 96.913 2.95459 97.1564 3.0759C97.3999 3.19721 97.6101 3.3759 97.7691 3.59655C97.8328 3.68281 97.8606 3.79036 97.8468 3.89668C97.8329 4.003 97.7785 4.09984 97.6949 4.16692C97.6537 4.19886 97.6066 4.22224 97.5564 4.2357C97.5061 4.24916 97.4536 4.25242 97.402 4.24529C97.3504 4.23816 97.3008 4.22079 97.256 4.19419C97.2113 4.1676 97.1723 4.13231 97.1414 4.09042C97.0646 3.98369 96.9654 3.89505 96.8507 3.83073C96.7361 3.7664 96.6087 3.72794 96.4776 3.71805C96.1007 3.68317 95.671 3.8418 95.3616 4.13317C95.3237 4.16905 95.279 4.19689 95.23 4.21503C95.1811 4.23316 95.129 4.2412 95.0769 4.23868C95.0247 4.23616 94.9737 4.22312 94.9267 4.20035C94.8797 4.17758 94.8379 4.14554 94.8036 4.10617C94.7327 4.0259 94.6957 3.92129 94.7003 3.81431C94.705 3.70733 94.7508 3.60629 94.8284 3.53242Z" fill="url(#paint6_linear_0_1)"/>
<path d="M81.9999 19.5C87.2471 19.5 91.4999 15.2472 91.4999 10C91.4999 4.75271 87.2471 0.5 81.9999 0.5C76.7527 0.5 72.5 4.75271 72.5 10C72.5 15.2472 76.7527 19.5 81.9999 19.5Z" fill="url(#paint7_linear_0_1)" stroke="white"/>
<path fill-rule="evenodd" clip-rule="evenodd" d="M83.9012 7.62344C83.7872 7.31823 80.214 7.31823 80.1002 7.62344C79.9679 7.97928 80.7808 8.46292 82.0014 8.44885C83.2206 8.46303 84.032 7.97782 83.9012 7.62344Z" fill="url(#paint8_linear_0_1)"/>
<path fill-rule="evenodd" clip-rule="evenodd" d="M79.8006 5.61257C79.8019 6.36913 79.3183 6.59132 78.601 6.68267C77.8909 6.78954 77.4128 6.47601 77.4015 5.61257C77.3916 4.88694 77.7826 4.00101 78.601 3.98413C79.4181 4.00101 79.7991 4.88694 79.8006 5.61257Z" fill="url(#paint9_radial_0_1)"/>
<path fill-rule="evenodd" clip-rule="evenodd" d="M78.4802 4.50583C78.5983 4.64353 78.5772 4.88271 78.4324 5.04156C78.2875 5.19906 78.0752 5.21593 77.9571 5.07812C77.8389 4.94031 77.86 4.70125 78.0049 4.54375C78.1497 4.38478 78.3621 4.36937 78.4802 4.50572V4.50583Z" fill="#4E506A"/>
<path fill-rule="evenodd" clip-rule="evenodd" d="M84.2021 5.61257C84.2008 6.36913 84.6845 6.59132 85.4017 6.68267C86.1118 6.78954 86.5899 6.47601 86.6012 5.61257C86.6111 4.88694 86.2201 4.00101 85.4016 3.98413C84.5833 4.00101 84.2021 4.88694 84.2021 5.61257Z" fill="url(#paint10_radial_0_1)"/>
<path fill-rule="evenodd" clip-rule="evenodd" d="M85.4073 4.45219C85.503 4.60688 85.4452 4.84032 85.278 4.97397C85.1106 5.10751 84.8983 5.09209 84.8026 4.93741C84.707 4.78272 84.7646 4.54928 84.932 4.41563C85.098 4.28209 85.3117 4.29751 85.4073 4.45219Z" fill="#4E506A"/>
<path fill-rule="evenodd" clip-rule="evenodd" d="M76.7968 3.33437C76.5619 3.53271 76.7518 3.93906 77.1484 3.75344C77.7812 3.45677 79.1382 3.09115 80.3308 3.22469C80.6471 3.2599 80.7497 3.21344 80.6795 2.8225C80.6106 2.43719 80.2464 2.18541 79.3408 2.29656C77.9373 2.46812 77.0316 3.13604 76.7968 3.33437Z" fill="url(#paint11_radial_0_1)"/>
<path fill-rule="evenodd" clip-rule="evenodd" d="M84.6591 2.29513C83.7535 2.18398 83.3893 2.43711 83.3203 2.82096C83.25 3.21201 83.3527 3.25836 83.6691 3.22326C84.8616 3.08961 86.2172 3.45523 86.8515 3.75201C87.248 3.93763 87.4379 3.53117 87.203 3.33294C86.9681 3.13607 86.0626 2.46804 84.6591 2.29513Z" fill="url(#paint12_radial_0_1)"/>
<path d="M83.8942 10.5681C81.5471 9.83822 80.7231 11.4541 80.7231 11.4541C80.7231 11.4541 80.9608 9.65541 78.6137 8.92562C76.3567 8.22385 74.9884 10.3037 74.883 11.6116C74.6565 14.4269 77.0964 17.6219 78.009 18.7103C78.213 18.9535 78.5378 19.0534 78.843 18.9691C80.2127 18.5907 84.0334 17.342 85.4439 14.8951C86.0977 13.7603 86.1498 11.2698 83.8942 10.5681Z" fill="url(#paint13_linear_0_1)"/>
<path d="M83.8942 10.5681C81.5471 9.83822 80.7231 11.4541 80.7231 11.4541C80.7231 11.4541 80.9608 9.65541 78.6137 8.92562C76.3567 8.22385 74.9884 10.3037 74.883 11.6116C74.6565 14.4269 77.0964 17.6219 78.009 18.7103C78.213 18.9535 78.5378 19.0534 78.843 18.9691C80.2127 18.5907 84.0334 17.342 85.4439 14.8951C86.0977 13.7603 86.1498 11.2698 83.8942 10.5681Z" fill="url(#paint14_radial_0_1)"/>
<path d="M83.8942 10.5681C81.5471 9.83822 80.7231 11.4541 80.7231 11.4541C80.7231 11.4541 80.9608 9.65541 78.6137 8.92562C76.3567 8.22385 74.9884 10.3037 74.883 11.6116C74.6565 14.4269 77.0964 17.6219 78.009 18.7103C78.213 18.9535 78.5378 19.0534 78.843 18.9691C80.2127 18.5907 84.0334 17.342 85.4439 14.8951C86.0977 13.7603 86.1498 11.2698 83.8942 10.5681Z" fill="url(#paint15_radial_0_1)"/>
<path style="mix-blend-mode:multiply" d="M83.8942 10.5681C81.5471 9.83822 80.7231 11.4541 80.7231 11.4541C80.7231 11.4541 80.9608 9.65541 78.6137 8.92562C76.3567 8.22385 74.9884 10.3037 74.883 11.6116C74.6565 14.4269 77.0964 17.6219 78.009 18.7103C78.213 18.9535 78.5378 19.0534 78.843 18.9691C80.2127 18.5907 84.0334 17.342 85.4439 14.8951C86.0977 13.7603 86.1498 11.2698 83.8942 10.5681Z" fill="url(#paint16_radial_0_1)"/>
<path style="mix-blend-mode:multiply" d="M83.8942 10.5681C81.5471 9.83822 80.7231 11.4541 80.7231 11.4541C80.7231 11.4541 80.9608 9.65541 78.6137 8.92562C76.3567 8.22385 74.9884 10.3037 74.883 11.6116C74.6565 14.4269 77.0964 17.6219 78.009 18.7103C78.213 18.9535 78.5378 19.0534 78.843 18.9691C80.2127 18.5907 84.0334 17.342 85.4439 14.8951C86.0977 13.7603 86.1498 11.2698 83.8942 10.5681Z" fill="url(#paint17_radial_0_1)"/>
<path style="mix-blend-mode:multiply" d="M83.8942 10.5681C81.5471 9.83822 80.7231 11.4541 80.7231 11.4541C80.7231 11.4541 80.9608 9.65541 78.6137 8.92562C76.3567 8.22385 74.9884 10.3037 74.883 11.6116C74.6565 14.4269 77.0964 17.6219 78.009 18.7103C78.213 18.9535 78.5378 19.0534 78.843 18.9691C80.2127 18.5907 84.0334 17.342 85.4439 14.8951C86.0977 13.7603 86.1498 11.2698 83.8942 10.5681Z" fill="url(#paint18_radial_0_1)"/>
<path style="mix-blend-mode:multiply" d="M83.8942 10.5681C81.5471 9.83822 80.7231 11.4541 80.7231 11.4541C80.7231 11.4541 80.9608 9.65541 78.6137 8.92562C76.3567 8.22385 74.9884 10.3037 74.883 11.6116C74.6565 14.4269 77.0964 17.6219 78.009 18.7103C78.213 18.9535 78.5378 19.0534 78.843 18.9691C80.2127 18.5907 84.0334 17.342 85.4439 14.8951C86.0977 13.7603 86.1498 11.2698 83.8942 10.5681Z" fill="url(#paint19_radial_0_1)"/>
<path style="mix-blend-mode:multiply" d="M83.8942 10.5681C81.5471 9.83822 80.7231 11.4541 80.7231 11.4541C80.7231 11.4541 80.9608 9.65541 78.6137 8.92562C76.3567 8.22385 74.9884 10.3037 74.883 11.6116C74.6565 14.4269 77.0964 17.6219 78.009 18.7103C78.213 18.9535 78.5378 19.0534 78.843 18.9691C80.2127 18.5907 84.0334 17.342 85.4439 14.8951C86.0977 13.7603 86.1498 11.2698 83.8942 10.5681Z" fill="url(#paint20_radial_0_1)"/>
<mask id="mask0_0_1" style="mask-type:alpha" maskUnits="userSpaceOnUse" x="73" y="1" width="18" height="18">
<path d="M91 10C91 14.971 86.9711 19 82 19C77.0289 19 73.0001 14.971 73.0001 10C73.0001 5.02885 77.0289 1 82 1C86.9711 1 91 5.02885 91 10Z" fill="white"/>
</mask>
<g mask="url(#mask0_0_1)">
<path fill-rule="evenodd" clip-rule="evenodd" d="M74.4879 9.62315C73.9001 9.05075 72.8651 8.7893 72.747 10.1153C72.6542 11.1518 73.1398 12.8847 74.3704 13.8916C77.4641 16.4229 80.3829 14.9772 80.4714 13.2105C80.5413 11.8172 78.9485 11.9674 78.4338 11.9955C78.3986 11.9969 78.3832 11.9505 78.4141 11.9309C78.5224 11.8605 78.6996 11.7396 78.8866 11.5821C79.2902 11.2417 79.0835 10.6511 78.5196 10.8213C78.4338 10.8466 77.0613 11.2572 76.1908 10.9281C75.2036 10.5555 75.0855 10.2068 74.4879 9.62315Z" fill="url(#paint21_radial_0_1)"/>
<path fill-rule="evenodd" clip-rule="evenodd" d="M89.0439 9.82005C89.3941 9.14224 89.9504 9.37995 90.2632 9.48424C90.7243 9.63791 90.9985 9.92411 90.9985 10.6413C90.9985 12.3415 90.7173 13.9179 89.2984 15.5013C86.6997 18.3995 82.2813 18.0157 81.9072 16.1875C81.5979 14.6716 83.2376 14.5197 83.7648 14.4494C83.8014 14.4451 83.807 14.3889 83.7747 14.3748C83.5885 14.2904 83.4081 14.1936 83.2347 14.0851C82.7664 13.7926 82.8733 13.1036 83.4751 13.1782C84.1558 13.2794 84.9982 13.4707 85.7238 13.399C87.8247 13.1881 88.2213 11.4119 89.0439 9.82005Z" fill="url(#paint22_radial_0_1)"/>
</g>
<path d="M70.7175 3.28249C68.9359 1.50089 66.5196 0.5 64 0.5H63.5V0.513154C61.1626 0.636255 58.9459 1.6191 57.2825 3.28249C55.5009 5.06408 54.5 7.48044 54.5 10C54.5 12.5196 55.5009 14.9359 57.2825 16.7175C59.0641 18.4991 61.4804 19.5 64 19.5C66.5196 19.5 68.9359 18.4991 70.7175 16.7175C72.4991 14.9359 73.5 12.5196 73.5 10C73.5 7.48044 72.4991 5.06408 70.7175 3.28249Z" fill="url(#paint23_linear_0_1)" stroke="white"/>
<path d="M66.7821 5.5C64.3094 5.5 64 7.552 64 7.552C64 7.552 63.6917 5.5 61.219 5.5C58.8407 5.5 58.1477 7.99975 58.438 9.33625C59.203 12.8688 64 15.3438 64 15.3438C64 15.3438 68.7981 12.8688 69.5631 9.33625C69.8522 7.99975 69.1581 5.5 66.7821 5.5Z" fill="white"/>
<mask id="path-35-outside-3_0_1" maskUnits="userSpaceOnUse" x="36" y="0" width="20" height="20" fill="black">
<rect fill="white" x="36" width="20" height="20"/>
<path d="M55 10C55 12.3869 54.0518 14.6761 52.364 16.364C50.6761 18.0518 48.3869 19 46 19C43.6131 19 41.3239 18.0518 39.636 16.364C37.9482 14.6761 37 12.3869 37 10C37 7.61305 37.9482 5.32387 39.636 3.63604C41.3239 1.94821 43.6131 1 46 1C48.3869 1 50.6761 1.94821 52.364 3.63604C54.0518 5.32387 55 7.61305 55 10Z"/>
</mask>
<path d="M55 10C55 12.3869 54.0518 14.6761 52.364 16.364C50.6761 18.0518 48.3869 19 46 19C43.6131 19 41.3239 18.0518 39.636 16.364C37.9482 14.6761 37 12.3869 37 10C37 7.61305 37.9482 5.32387 39.636 3.63604C41.3239 1.94821 43.6131 1 46 1C48.3869 1 50.6761 1.94821 52.364 3.63604C54.0518 5.32387 55 7.61305 55 10Z" fill="url(#paint24_linear_0_1)"/>
<path d="M46 19V20V19ZM37 10H36H37ZM46 1V0V1ZM54 10C54 12.1217 53.1571 14.1566 51.6569 15.6569L53.0711 17.0711C54.9464 15.1957 56 12.6522 56 10H54ZM51.6569 15.6569C50.1566 17.1571 48.1217 18 46 18V20C48.6522 20 51.1957 18.9464 53.0711 17.0711L51.6569 15.6569ZM46 18C43.8783 18 41.8434 17.1571 40.3431 15.6569L38.9289 17.0711C40.8043 18.9464 43.3478 20 46 20V18ZM40.3431 15.6569C38.8429 14.1566 38 12.1217 38 10H36C36 12.6522 37.0536 15.1957 38.9289 17.0711L40.3431 15.6569ZM38 10C38 7.87827 38.8429 5.84344 40.3431 4.34315L38.9289 2.92893C37.0536 4.8043 36 7.34784 36 10H38ZM40.3431 4.34315C41.8434 2.84285 43.8783 2 46 2V0C43.3478 0 40.8043 1.05357 38.9289 2.92893L40.3431 4.34315ZM46 2C48.1217 2 50.1566 2.84285 51.6569 4.34315L53.0711 2.92893C51.1957 1.05357 48.6522 0 46 0V2ZM51.6569 4.34315C53.1571 5.84344 54 7.87827 54 10H56C56 7.34784 54.9464 4.8043 53.0711 2.92893L51.6569 4.34315Z" fill="white" mask="url(#path-35-outside-3_0_1)"/>
<path d="M42.9996 15.3606C42.9996 15.5148 43.1054 15.625 43.2809 15.625C43.6758 15.625 44.2214 14.9219 46 14.9219C47.7786 14.9219 48.3254 15.625 48.7191 15.625C48.8946 15.625 49.0004 15.5148 49.0004 15.3606C49.0004 14.914 48.0565 13.375 46 13.375C43.9435 13.375 42.9996 14.914 42.9996 15.3606Z" fill="url(#paint25_linear_0_1)"/>
<path d="M41.0489 10.9C41.0489 9.98873 41.6215 9.25073 42.3247 9.25073C43.03 9.25073 43.6004 9.98873 43.6004 10.9C43.6004 11.2802 43.5003 11.6312 43.3327 11.9102C43.2577 12.0361 43.136 12.1271 42.994 12.1634C42.8365 12.205 42.5969 12.25 42.3247 12.25C42.0513 12.25 41.815 12.205 41.6553 12.1634C41.5137 12.1271 41.3923 12.036 41.3178 11.9102C41.1383 11.6041 41.0453 11.2549 41.0489 10.9ZM48.3997 10.9C48.3997 9.98873 48.9712 9.25073 49.6743 9.25073C50.3797 9.25073 50.95 9.98873 50.95 10.9C50.95 11.2802 50.8499 11.6312 50.6823 11.9102C50.6453 11.9726 50.5963 12.0271 50.5382 12.0705C50.4801 12.114 50.414 12.1455 50.3437 12.1634C49.905 12.277 49.4447 12.277 49.006 12.1634C48.9357 12.1455 48.8696 12.114 48.8115 12.0705C48.7534 12.0271 48.7044 11.9726 48.6674 11.9102C48.4882 11.604 48.3957 11.2548 48.3997 10.9Z" fill="url(#paint26_linear_0_1)"/>
<g filter="url(#filter2_i_0_1)">
<path d="M41.0489 10.9C41.0489 9.98873 41.6215 9.25073 42.3247 9.25073C43.03 9.25073 43.6004 9.98873 43.6004 10.9C43.6004 11.2802 43.5003 11.6312 43.3327 11.9102C43.2577 12.0361 43.136 12.1271 42.994 12.1634C42.8365 12.205 42.5969 12.25 42.3247 12.25C42.0513 12.25 41.815 12.205 41.6553 12.1634C41.5137 12.1271 41.3923 12.036 41.3178 11.9102C41.1383 11.6041 41.0453 11.2549 41.0489 10.9ZM48.3997 10.9C48.3997 9.98873 48.9712 9.25073 49.6743 9.25073C50.3797 9.25073 50.95 9.98873 50.95 10.9C50.95 11.2802 50.8499 11.6312 50.6823 11.9102C50.6453 11.9726 50.5963 12.0271 50.5382 12.0705C50.4801 12.114 50.414 12.1455 50.3437 12.1634C49.905 12.277 49.4447 12.277 49.006 12.1634C48.9357 12.1455 48.8696 12.114 48.8115 12.0705C48.7534 12.0271 48.7044 11.9726 48.6674 11.9102C48.4882 11.604 48.3957 11.2548 48.3997 10.9Z" fill="black"/>
</g>
<path d="M42.193 9.98424C42.337 10.1249 42.346 10.4027 42.2121 10.6041C42.0771 10.8044 41.8521 10.8539 41.7081 10.7121C41.5641 10.5715 41.5563 10.2936 41.689 10.0934C41.824 9.89199 42.049 9.84362 42.193 9.98424ZM49.4931 9.98424C49.6371 10.1249 49.6461 10.4027 49.5134 10.6041C49.3784 10.8044 49.1534 10.8539 49.0071 10.7121C48.8643 10.5715 48.8564 10.2936 48.9903 10.0934C49.1241 9.89199 49.3491 9.84362 49.4931 9.98424Z" fill="#4E506A"/>
<path d="M41.6766 6.79703C42.0501 6.62491 42.3471 6.55066 42.5778 6.55066C42.8894 6.55066 43.0851 6.68453 43.1965 6.89491C43.3934 7.26503 43.3045 7.34603 42.9738 7.41128C41.7295 7.66328 40.4796 8.47103 39.9374 8.97503C39.5988 9.29003 39.2748 8.94128 39.4469 8.66678C39.6201 8.39228 40.3176 7.42366 41.6766 6.79703ZM48.8035 6.89491C48.9149 6.68453 49.1106 6.55066 49.4223 6.55066C49.654 6.55066 49.9499 6.62491 50.3234 6.79703C51.6824 7.42366 52.3799 8.39228 52.552 8.66678C52.7241 8.94128 52.4013 9.29003 52.0626 8.97503C51.5193 8.47103 50.2705 7.66328 49.0251 7.41128C48.6944 7.34603 48.6078 7.26503 48.8035 6.89491Z" fill="url(#paint27_linear_0_1)"/>
<path d="M52.1875 19C51.256 19 50.5 18.1585 50.5 17.1201C50.5 16.0829 50.9005 15.382 51.2234 14.7048C51.8961 13.2895 52.0289 13.0938 52.1875 13.0938C52.3461 13.0938 52.4789 13.2895 53.1516 14.7048C53.4745 15.382 53.875 16.0829 53.875 17.1201C53.875 18.1585 53.119 19 52.1875 19Z" fill="url(#paint28_linear_0_1)"/>
<path d="M52.1875 16.3067C51.8185 16.3067 51.5193 15.9737 51.5193 15.5642C51.5193 15.1525 51.6779 14.8746 51.8061 14.6057C52.0716 14.0455 52.1245 13.969 52.1875 13.969C52.2505 13.969 52.3034 14.0455 52.5689 14.6057C52.6971 14.8757 52.8558 15.1525 52.8558 15.5631C52.8558 15.9737 52.5565 16.3067 52.1875 16.3067Z" fill="url(#paint29_linear_0_1)"/>
<mask id="path-44-outside-4_0_1" maskUnits="userSpaceOnUse" x="18" y="0" width="20" height="20" fill="black">
<rect fill="white" x="18" width="20" height="20"/>
<path d="M37 10C37 12.3869 36.0518 14.6761 34.364 16.364C32.6761 18.0518 30.3869 19 28 19C25.6131 19 23.3239 18.0518 21.636 16.364C19.9482 14.6761 19 12.3869 19 10C19 7.61305 19.9482 5.32387 21.636 3.63604C23.3239 1.94821 25.6131 1 28 1C30.3869 1 32.6761 1.94821 34.364 3.63604C36.0518 5.32387 37 7.61305 37 10Z"/>
</mask>
<path d="M37 10C37 12.3869 36.0518 14.6761 34.364 16.364C32.6761 18.0518 30.3869 19 28 19C25.6131 19 23.3239 18.0518 21.636 16.364C19.9482 14.6761 19 12.3869 19 10C19 7.61305 19.9482 5.32387 21.636 3.63604C23.3239 1.94821 25.6131 1 28 1C30.3869 1 32.6761 1.94821 34.364 3.63604C36.0518 5.32387 37 7.61305 37 10Z" fill="url(#paint30_linear_0_1)"/>
<path d="M28 19V20V19ZM19 10H18H19ZM28 1V0V1ZM36 10C36 12.1217 35.1571 14.1566 33.6569 15.6569L35.0711 17.0711C36.9464 15.1957 38 12.6522 38 10H36ZM33.6569 15.6569C32.1566 17.1571 30.1217 18 28 18V20C30.6522 20 33.1957 18.9464 35.0711 17.0711L33.6569 15.6569ZM28 18C25.8783 18 23.8434 17.1571 22.3431 15.6569L20.9289 17.0711C22.8043 18.9464 25.3478 20 28 20V18ZM22.3431 15.6569C20.8429 14.1566 20 12.1217 20 10H18C18 12.6522 19.0536 15.1957 20.9289 17.0711L22.3431 15.6569ZM20 10C20 7.87827 20.8429 5.84344 22.3431 4.34315L20.9289 2.92893C19.0536 4.8043 18 7.34784 18 10H20ZM22.3431 4.34315C23.8434 2.84285 25.8783 2 28 2V0C25.3478 0 22.8043 1.05357 20.9289 2.92893L22.3431 4.34315ZM28 2C30.1217 2 32.1566 2.84285 33.6569 4.34315L35.0711 2.92893C33.1957 1.05357 30.6522 0 28 0V2ZM33.6569 4.34315C35.1571 5.84344 36 7.87827 36 10H38C38 7.34784 36.9464 4.8043 35.0711 2.92893L33.6569 4.34315Z" fill="white" mask="url(#path-44-outside-4_0_1)"/>
<g filter="url(#filter3_d_0_1)">
<path d="M24.85 16.2449C24.85 16.8389 26.2596 16.7444 28 16.7444C29.7393 16.7444 31.15 16.8389 31.15 16.2449C31.15 15.5294 29.7393 15.0625 28 15.0625C26.2596 15.0625 24.85 15.5294 24.85 16.2449Z" fill="black"/>
</g>
<path d="M24.85 16.2449C24.85 16.8389 26.2596 16.7444 28 16.7444C29.7393 16.7444 31.15 16.8389 31.15 16.2449C31.15 15.5294 29.7393 15.0625 28 15.0625C26.2596 15.0625 24.85 15.5294 24.85 16.2449Z" fill="url(#paint31_linear_0_1)"/>
<path d="M23.05 12.0599C23.05 11.1701 23.6552 10.4501 24.4 10.4501C25.1459 10.4501 25.75 11.1701 25.75 12.0599C25.75 12.4301 25.6454 12.7721 25.4665 13.0432C25.3829 13.168 25.255 13.2565 25.1087 13.2907C24.94 13.3312 24.6891 13.3751 24.4 13.3751C24.1109 13.3751 23.8589 13.3312 23.6912 13.2907C23.5448 13.2568 23.4168 13.1683 23.3335 13.0432C23.1451 12.7501 23.0466 12.4083 23.05 12.0599ZM30.25 12.0599C30.25 11.1701 30.8541 10.4501 31.6 10.4501C32.3447 10.4501 32.95 11.1701 32.95 12.0599C32.95 12.4301 32.8442 12.7721 32.6665 13.0432C32.5832 13.1683 32.4552 13.2568 32.3087 13.2907C32.0766 13.3462 31.8387 13.3745 31.6 13.3751C31.3109 13.3751 31.06 13.3312 30.8912 13.2907C30.7447 13.2565 30.6165 13.168 30.5324 13.0432C30.3449 12.7498 30.2468 12.4081 30.25 12.0599Z" fill="url(#paint32_linear_0_1)"/>
<g filter="url(#filter4_i_0_1)">
<path d="M23.05 12.0599C23.05 11.1701 23.6552 10.4501 24.4 10.4501C25.1459 10.4501 25.75 11.1701 25.75 12.0599C25.75 12.4301 25.6454 12.7721 25.4665 13.0432C25.3829 13.168 25.255 13.2565 25.1087 13.2907C24.94 13.3312 24.6891 13.3751 24.4 13.3751C24.1109 13.3751 23.8589 13.3312 23.6912 13.2907C23.5448 13.2568 23.4168 13.1683 23.3335 13.0432C23.1451 12.7501 23.0466 12.4083 23.05 12.0599ZM30.25 12.0599C30.25 11.1701 30.8541 10.4501 31.6 10.4501C32.3447 10.4501 32.95 11.1701 32.95 12.0599C32.95 12.4301 32.8442 12.7721 32.6665 13.0432C32.5832 13.1683 32.4552 13.2568 32.3087 13.2907C32.0766 13.3462 31.8387 13.3745 31.6 13.3751C31.3109 13.3751 31.06 13.3312 30.8912 13.2907C30.7447 13.2565 30.6165 13.168 30.5324 13.0432C30.3449 12.7498 30.2468 12.4081 30.25 12.0599Z" fill="black"/>
</g>
<path d="M24.589 11.4996C24.5945 11.5258 24.5971 11.5526 24.5969 11.5794C24.5969 11.8056 24.3989 11.9912 24.1536 11.9912C23.9095 11.9912 23.7115 11.8056 23.7115 11.5794C23.7115 11.4861 23.7452 11.3994 23.8015 11.3308C24.0535 11.3904 24.3179 11.4478 24.589 11.4996ZM31.2557 11.9912C31.0184 11.9912 30.8249 11.8191 30.8136 11.5997C31.105 11.5569 31.3941 11.5041 31.6754 11.4467C31.691 11.4896 31.6986 11.5349 31.6979 11.5806C31.6979 11.8056 31.501 11.9912 31.2557 11.9912Z" fill="#4F4F67"/>
<g filter="url(#filter5_d_0_1)">
<path d="M29.125 9.55C29.125 9.04825 29.3084 8.875 29.6256 8.875C29.9406 8.875 30.0914 9.1855 30.1949 10.0742C31.4639 10.0742 33.6126 9.4735 33.8196 9.4735C34.0199 9.4735 34.1313 9.56912 34.1763 9.77387C34.2156 9.95162 34.1504 10.1204 33.9276 10.2239C33.229 10.5468 31.1793 11.2757 29.4456 11.2757C29.2566 11.2757 29.125 11.179 29.125 10.9371V9.55ZM25.8051 10.0742C25.9086 9.1855 26.0594 8.875 26.3744 8.875C26.6916 8.875 26.875 9.04825 26.875 9.55V10.9371C26.875 11.179 26.7434 11.2757 26.5544 11.2757C24.8208 11.2757 22.771 10.5468 22.0724 10.2239C21.8496 10.1204 21.7844 9.95162 21.8238 9.77387C21.8699 9.56912 21.9813 9.4735 22.1804 9.4735C22.3874 9.4735 24.5361 10.0742 25.8051 10.0742Z" fill="black"/>
</g>
<path d="M29.125 9.55C29.125 9.04825 29.3084 8.875 29.6256 8.875C29.9406 8.875 30.0914 9.1855 30.1949 10.0742C31.4639 10.0742 33.6126 9.4735 33.8196 9.4735C34.0199 9.4735 34.1313 9.56912 34.1763 9.77387C34.2156 9.95162 34.1504 10.1204 33.9276 10.2239C33.229 10.5468 31.1793 11.2757 29.4456 11.2757C29.2566 11.2757 29.125 11.179 29.125 10.9371V9.55ZM25.8051 10.0742C25.9086 9.1855 26.0594 8.875 26.3744 8.875C26.6916 8.875 26.875 9.04825 26.875 9.55V10.9371C26.875 11.179 26.7434 11.2757 26.5544 11.2757C24.8208 11.2757 22.771 10.5468 22.0724 10.2239C21.8496 10.1204 21.7844 9.95162 21.8238 9.77387C21.8699 9.56912 21.9813 9.4735 22.1804 9.4735C22.3874 9.4735 24.5361 10.0742 25.8051 10.0742Z" fill="url(#paint33_linear_0_1)"/>
<path d="M16.7175 3.28249C14.9359 1.50089 12.5196 0.5 10 0.5H9.5V0.513154C7.16259 0.636255 4.94587 1.6191 3.28249 3.28249C1.50089 5.06408 0.5 7.48044 0.5 10C0.5 12.5196 1.50089 14.9359 3.28249 16.7175C5.06408 18.4991 7.48044 19.5 10 19.5C12.5196 19.5 14.9359 18.4991 16.7175 16.7175C18.4991 14.9359 19.5 12.5196 19.5 10C19.5 7.48044 18.4991 5.06408 16.7175 3.28249Z" fill="url(#paint34_linear_0_1)" stroke="white"/>
<path d="M14.6823 9.25525C14.8802 9.39362 15.0625 9.53088 15.0625 10.0135C15.0625 10.4973 14.8049 10.693 14.5293 10.8291C14.6419 11.0128 14.6779 11.2334 14.6294 11.4434C14.5427 11.8304 14.1884 12.1307 13.8734 12.2196C14.0095 12.4379 14.0522 12.6528 13.8903 12.9171C13.6821 13.249 13.501 13.375 12.7 13.375H9.4375C8.326 13.375 7.75 12.7607 7.75 12.25V9.62313C7.75 8.23937 9.40037 7.06375 9.40037 6.10187L9.28113 4.90375C9.2755 4.83063 9.29013 4.65175 9.34637 4.6C9.43638 4.51113 9.685 4.375 10.0608 4.375C10.306 4.375 10.4691 4.42112 10.6615 4.51337C11.3151 4.825 11.485 5.61362 11.485 6.24812C11.485 6.553 11.0193 7.4665 10.9563 7.78262C10.9563 7.78262 11.9316 7.56662 13.0701 7.55875C14.2638 7.552 15.0377 7.7725 15.0377 8.506C15.0377 8.79962 14.7914 9.09437 14.6823 9.25525ZM5.05 8.875H5.95C6.12902 8.875 6.30071 8.94612 6.4273 9.0727C6.55388 9.19929 6.625 9.37098 6.625 9.55V13.825C6.625 14.004 6.55388 14.1757 6.4273 14.3023C6.30071 14.4289 6.12902 14.5 5.95 14.5H5.05C4.87098 14.5 4.69929 14.4289 4.5727 14.3023C4.44612 14.1757 4.375 14.004 4.375 13.825V9.55C4.375 9.37098 4.44612 9.19929 4.5727 9.0727C4.69929 8.94612 4.87098 8.875 5.05 8.875Z" fill="white"/>
<defs>
<filter id="filter0_i_0_1" x="94.9375" y="5.5" width="10.125" height="3.375" filterUnits="userSpaceOnUse" color-interpolation-filters="sRGB">
<feFlood flood-opacity="0" result="BackgroundImageFix"/>
<feBlend mode="normal" in="SourceGraphic" in2="BackgroundImageFix" result="shape"/>
<feColorMatrix in="SourceAlpha" type="matrix" values="0 0 0 0 0 0 0 0 0 0 0 0 0 0 0 0 0 0 127 0" result="hardAlpha"/>
<feOffset/>
<feGaussianBlur stdDeviation="0.5"/>
<feComposite in2="hardAlpha" operator="arithmetic" k2="-1" k3="1"/>
<feColorMatrix type="matrix" values="0 0 0 0 0.0980392 0 0 0 0 0.101961 0 0 0 0 0.2 0 0 0 0.819684 0"/>
<feBlend mode="normal" in2="shape" result="effect1_innerShadow_0_1"/>
</filter>
<filter id="filter1_d_0_1" x="91.7" y="0.89978" width="16.6001" height="7.34924" filterUnits="userSpaceOnUse" color-interpolation-filters="sRGB">
<feFlood flood-opacity="0" result="BackgroundImageFix"/>
<feColorMatrix in="SourceAlpha" type="matrix" values="0 0 0 0 0 0 0 0 0 0 0 0 0 0 0 0 0 0 127 0" result="hardAlpha"/>
<feOffset dy="1"/>
<feGaussianBlur stdDeviation="1.5"/>
<feColorMatrix type="matrix" values="0 0 0 0 0.803922 0 0 0 0 0.388235 0 0 0 0 0.00392157 0 0 0 0.145679 0"/>
<feBlend mode="normal" in2="BackgroundImageFix" result="effect1_dropShadow_0_1"/>
<feBlend mode="normal" in="SourceGraphic" in2="effect1_dropShadow_0_1" result="shape"/>
</filter>
<filter id="filter2_i_0_1" x="41.0488" y="9.25073" width="9.90122" height="2.99927" filterUnits="userSpaceOnUse" color-interpolation-filters="sRGB">
<feFlood flood-opacity="0" result="BackgroundImageFix"/>
<feBlend mode="normal" in="SourceGraphic" in2="BackgroundImageFix" result="shape"/>
<feColorMatrix in="SourceAlpha" type="matrix" values="0 0 0 0 0 0 0 0 0 0 0 0 0 0 0 0 0 0 127 0" result="hardAlpha"/>
<feOffset/>
<feGaussianBlur stdDeviation="0.5"/>
<feComposite in2="hardAlpha" operator="arithmetic" k2="-1" k3="1"/>
<feColorMatrix type="matrix" values="0 0 0 0 0.0411227 0 0 0 0 0.0430885 0 0 0 0 0.0922353 0 0 0 0.819684 0"/>
<feBlend mode="normal" in2="shape" result="effect1_innerShadow_0_1"/>
</filter>
<filter id="filter3_d_0_1" x="23.85" y="15.0625" width="8.3" height="3.68738" filterUnits="userSpaceOnUse" color-interpolation-filters="sRGB">
<feFlood flood-opacity="0" result="BackgroundImageFix"/>
<feColorMatrix in="SourceAlpha" type="matrix" values="0 0 0 0 0 0 0 0 0 0 0 0 0 0 0 0 0 0 127 0" result="hardAlpha"/>
<feOffset dy="1"/>
<feGaussianBlur stdDeviation="0.5"/>
<feColorMatrix type="matrix" values="0 0 0 0 1 0 0 0 0 0.509681 0 0 0 0 0 0 0 0 0.371207 0"/>
<feBlend mode="normal" in2="BackgroundImageFix" result="effect1_dropShadow_0_1"/>
<feBlend mode="normal" in="SourceGraphic" in2="effect1_dropShadow_0_1" result="shape"/>
</filter>
<filter id="filter4_i_0_1" x="23.0499" y="10.4501" width="9.90009" height="2.92505" filterUnits="userSpaceOnUse" color-interpolation-filters="sRGB">
<feFlood flood-opacity="0" result="BackgroundImageFix"/>
<feBlend mode="normal" in="SourceGraphic" in2="BackgroundImageFix" result="shape"/>
<feColorMatrix in="SourceAlpha" type="matrix" values="0 0 0 0 0 0 0 0 0 0 0 0 0 0 0 0 0 0 127 0" result="hardAlpha"/>
<feOffset/>
<feGaussianBlur stdDeviation="0.5"/>
<feComposite in2="hardAlpha" operator="arithmetic" k2="-1" k3="1"/>
<feColorMatrix type="matrix" values="0 0 0 0 0.0387428 0 0 0 0 0.0406183 0 0 0 0 0.0875053 0 0 0 1 0"/>
<feBlend mode="normal" in2="shape" result="effect1_innerShadow_0_1"/>
</filter>
<filter id="filter5_d_0_1" x="21.713" y="8.875" width="12.5741" height="3.10076" filterUnits="userSpaceOnUse" color-interpolation-filters="sRGB">
<feFlood flood-opacity="0" result="BackgroundImageFix"/>
<feColorMatrix in="SourceAlpha" type="matrix" values="0 0 0 0 0 0 0 0 0 0 0 0 0 0 0 0 0 0 127 0" result="hardAlpha"/>
<feOffset dy="0.6"/>
<feGaussianBlur stdDeviation="0.05"/>
<feColorMatrix type="matrix" values="0 0 0 0 0.565875 0 0 0 0 0.151272 0 0 0 0 0 0 0 0 0.15024 0"/>
<feBlend mode="normal" in2="BackgroundImageFix" result="effect1_dropShadow_0_1"/>
<feBlend mode="normal" in="SourceGraphic" in2="effect1_dropShadow_0_1" result="shape"/>
</filter>
<linearGradient id="paint0_linear_0_1" x1="118" y1="2.845" x2="118" y2="19" gradientUnits="userSpaceOnUse">
<stop stop-color="#FEEA70"/>
<stop offset="1" stop-color="#F69B30"/>
</linearGradient>
<linearGradient id="paint1_linear_0_1" x1="118" y1="8.875" x2="118" y2="16.75" gradientUnits="userSpaceOnUse">
<stop stop-color="#472315"/>
<stop offset="1" stop-color="#8B3A0E"/>
</linearGradient>
<linearGradient id="paint2_linear_0_1" x1="118.006" y1="13.375" x2="118.006" y2="16.1392" gradientUnits="userSpaceOnUse">
<stop stop-color="#FC607C"/>
<stop offset="1" stop-color="#D91F3A"/>
</linearGradient>
<linearGradient id="paint3_linear_0_1" x1="100" y1="2.845" x2="100" y2="19" gradientUnits="userSpaceOnUse">
<stop stop-color="#FEEA70"/>
<stop offset="1" stop-color="#F69B30"/>
</linearGradient>
<linearGradient id="paint4_linear_0_1" x1="100" y1="10" x2="100" y2="16.75" gradientUnits="userSpaceOnUse">
<stop stop-color="#472315"/>
<stop offset="1" stop-color="#8B3A0E"/>
</linearGradient>
<linearGradient id="paint5_linear_0_1" x1="100" y1="5.5" x2="100" y2="8.875" gradientUnits="userSpaceOnUse">
<stop stop-color="#191A33"/>
<stop offset="0.87162" stop-color="#3B426A"/>
</linearGradient>
<linearGradient id="paint6_linear_0_1" x1="100" y1="2.89978" x2="100" y2="4.24897" gradientUnits="userSpaceOnUse">
<stop stop-color="#E78E0D"/>
<stop offset="1" stop-color="#CB6000"/>
</linearGradient>
<linearGradient id="paint7_linear_0_1" x1="81.9999" y1="18.1063" x2="81.9999" y2="2.33497" gradientUnits="userSpaceOnUse">
<stop stop-color="#F28A2D"/>
<stop offset="1" stop-color="#FDE86F"/>
</linearGradient>
<linearGradient id="paint8_linear_0_1" x1="82" y1="6.97204" x2="82" y2="8.57475" gradientUnits="userSpaceOnUse">
<stop stop-color="#482314"/>
<stop offset="1" stop-color="#9A4111"/>
</linearGradient>
<radialGradient id="paint9_radial_0_1" cx="0" cy="0" r="1" gradientUnits="userSpaceOnUse" gradientTransform="translate(77.6217 -2.70109) rotate(-90) scale(1.84674 2.3712)">
<stop stop-color="#3B446B"/>
<stop offset="0.6884" stop-color="#202340"/>
</radialGradient>
<radialGradient id="paint10_radial_0_1" cx="0" cy="0" r="1" gradientUnits="userSpaceOnUse" gradientTransform="translate(77.6051 -8.68618) rotate(-90) scale(1.84674 2.3712)">
<stop stop-color="#3B446B"/>
<stop offset="0.6884" stop-color="#202340"/>
</radialGradient>
<radialGradient id="paint11_radial_0_1" cx="0" cy="0" r="1" gradientUnits="userSpaceOnUse" gradientTransform="translate(75.5352 -5.11248) rotate(-95.6135) scale(1.16051 0.829179)">
<stop stop-color="#E38200"/>
<stop offset="1" stop-color="#CD6700"/>
</radialGradient>
<radialGradient id="paint12_radial_0_1" cx="0" cy="0" r="1" gradientUnits="userSpaceOnUse" gradientTransform="translate(77.5058 -8.63008) rotate(-85.7853) scale(1.23768 1.10586)">
<stop stop-color="#E38200"/>
<stop offset="1" stop-color="#CD6700"/>
</radialGradient>
<linearGradient id="paint13_linear_0_1" x1="80.6514" y1="11.9783" x2="78.3607" y2="19.3457" gradientUnits="userSpaceOnUse">
<stop stop-color="#F34462"/>
<stop offset="1" stop-color="#CC0820"/>
</linearGradient>
<radialGradient id="paint14_radial_0_1" cx="0" cy="0" r="1" gradientUnits="userSpaceOnUse" gradientTransform="translate(77.955 15.7439) rotate(21.7628) scale(2.98497 2.93047)">
<stop stop-color="#FF7091" stop-opacity="0.7"/>
<stop offset="1" stop-color="#FE6D8E" stop-opacity="0"/>
</radialGradient>
<radialGradient id="paint15_radial_0_1" cx="0" cy="0" r="1" gradientUnits="userSpaceOnUse" gradientTransform="translate(73.8282 12.7286) rotate(21.7628) scale(2.98497 2.93047)">
<stop stop-color="#FF7091" stop-opacity="0.7"/>
<stop offset="1" stop-color="#FE6D8E" stop-opacity="0"/>
</radialGradient>
<radialGradient id="paint16_radial_0_1" cx="0" cy="0" r="1" gradientUnits="userSpaceOnUse" gradientTransform="translate(56.6102 2.22483) rotate(100.831) scale(2.72249 3.26845)">
<stop stop-color="#9C0600" stop-opacity="0.9986"/>
<stop offset="1" stop-color="white"/>
</radialGradient>
<radialGradient id="paint17_radial_0_1" cx="0" cy="0" r="1" gradientUnits="userSpaceOnUse" gradientTransform="translate(75.8488 21.4876) rotate(32.4534) scale(1.56241 1.88588)">
<stop stop-color="#9C0600" stop-opacity="0.5"/>
<stop offset="1" stop-color="white"/>
</radialGradient>
<radialGradient id="paint18_radial_0_1" cx="0" cy="0" r="1" gradientUnits="userSpaceOnUse" gradientTransform="translate(79.1579 12.5722) rotate(-21.5163) scale(1.34287 1.69959)">
<stop stop-color="#9C0600" stop-opacity="0.5"/>
<stop offset="1" stop-color="white"/>
</radialGradient>
<radialGradient id="paint19_radial_0_1" cx="0" cy="0" r="1" gradientUnits="userSpaceOnUse" gradientTransform="translate(72.5898 20.29) rotate(35.9907) scale(1.83426 1.8955)">
<stop stop-color="#9C0600" stop-opacity="0.9986"/>
<stop offset="1" stop-color="white"/>
</radialGradient>
<radialGradient id="paint20_radial_0_1" cx="0" cy="0" r="1" gradientUnits="userSpaceOnUse" gradientTransform="translate(58.9737 1.97988) rotate(112.664) scale(5.57441 5.66372)">
<stop stop-color="white" stop-opacity="0"/>
<stop offset="1" stop-color="#F08423"/>
</radialGradient>
<radialGradient id="paint21_radial_0_1" cx="0" cy="0" r="1" gradientUnits="userSpaceOnUse" gradientTransform="translate(68.9337 7.85152) rotate(43.2026) scale(8.24282 6.78127)">
<stop stop-color="#EDA83A"/>
<stop offset="1" stop-color="#FFDC5E"/>
</radialGradient>
<radialGradient id="paint22_radial_0_1" cx="0" cy="0" r="1" gradientUnits="userSpaceOnUse" gradientTransform="translate(57.2972 7.16616) rotate(131.418) scale(9.16776 8.23311)">
<stop stop-color="#F4B248"/>
<stop offset="1" stop-color="#FFDD5F"/>
</radialGradient>
<linearGradient id="paint23_linear_0_1" x1="64" y1="1" x2="64" y2="19" gradientUnits="userSpaceOnUse">
<stop stop-color="#FF6680"/>
<stop offset="1" stop-color="#E61739"/>
</linearGradient>
<linearGradient id="paint24_linear_0_1" x1="46" y1="2.845" x2="46" y2="19" gradientUnits="userSpaceOnUse">
<stop stop-color="#FEEA70"/>
<stop offset="1" stop-color="#F69B30"/>
</linearGradient>
<linearGradient id="paint25_linear_0_1" x1="46" y1="13.375" x2="46" y2="15.625" gradientUnits="userSpaceOnUse">
<stop stop-color="#472315"/>
<stop offset="1" stop-color="#8B3A0E"/>
</linearGradient>
<linearGradient id="paint26_linear_0_1" x1="45.9994" y1="9.25073" x2="45.9994" y2="12.25" gradientUnits="userSpaceOnUse">
<stop stop-color="#191A33"/>
<stop offset="0.87162" stop-color="#3B426A"/>
</linearGradient>
<linearGradient id="paint27_linear_0_1" x1="45.9995" y1="6.55066" x2="45.9995" y2="9.09972" gradientUnits="userSpaceOnUse">
<stop stop-color="#E78E0D"/>
<stop offset="1" stop-color="#CB6000"/>
</linearGradient>
<linearGradient id="paint28_linear_0_1" x1="52.1875" y1="17.9309" x2="52.1875" y2="14.1533" gradientUnits="userSpaceOnUse">
<stop stop-color="#35CAFC"/>
<stop offset="1" stop-color="#007EDB"/>
</linearGradient>
<linearGradient id="paint29_linear_0_1" x1="52.1875" y1="13.969" x2="52.1875" y2="16.3067" gradientUnits="userSpaceOnUse">
<stop stop-color="#6AE1FF" stop-opacity="0.287"/>
<stop offset="1" stop-color="#A8E3FF" stop-opacity="0.799"/>
</linearGradient>
<linearGradient id="paint30_linear_0_1" x1="28" y1="1" x2="28" y2="13.0949" gradientUnits="userSpaceOnUse">
<stop stop-color="#E04300"/>
<stop offset="1" stop-color="#FFA320"/>
</linearGradient>
<linearGradient id="paint31_linear_0_1" x1="28" y1="15.2905" x2="28" y2="16.7499" gradientUnits="userSpaceOnUse">
<stop stop-color="#3D0D00"/>
<stop offset="1" stop-color="#661C04"/>
</linearGradient>
<linearGradient id="paint32_linear_0_1" x1="27.9999" y1="10.4501" x2="27.9999" y2="13.3751" gradientUnits="userSpaceOnUse">
<stop stop-color="#191A33"/>
<stop offset="0.87162" stop-color="#3B426A"/>
</linearGradient>
<linearGradient id="paint33_linear_0_1" x1="32.0675" y1="11.4999" x2="32.0675" y2="8.875" gradientUnits="userSpaceOnUse">
<stop stop-color="#9A2F00"/>
<stop offset="1" stop-color="#D44800"/>
</linearGradient>
<linearGradient id="paint34_linear_0_1" x1="10" y1="1" x2="10" y2="19" gradientUnits="userSpaceOnUse">
<stop stop-color="#18AFFF"/>
<stop offset="1" stop-color="#0062DF"/>
</linearGradient>
</defs>
</svg>
